Coordinates
version=1
nRows=13
nColumns=22
inDegrees=yes

Units are S.I. units (second, meters, Newtons, ...)
If the header above contains a line with 'inDegrees', this indicates whether rotational values are in degrees (yes) or radians (no).

endheader
time	pelvis_tilt	pelvis_list	pelvis_rotation	pelvis_tx	pelvis_ty	pelvis_tz	hip_flexion_r	hip_adduction_r	hip_rotation_r	knee_angle_r	ankle_angle_r	subtalar_angle_r	hip_flexion_l	hip_adduction_l	hip_rotation_l	knee_angle_l	ankle_angle_l	subtalar_angle_l	lumbar_extension	lumbar_bending	lumbar_rotation
      3.49000000	      3.24628822	      0.68621010	    146.25209875	      0.59283655	      0.91221919	     -0.33165876	     31.22072844	      4.04309053	     11.96101533	    -13.94094472	      9.55540958	     12.50834967	    -12.68574562	      9.71175281	     34.58181486	    -14.64819402	      8.66055413	    -19.58662989	     -5.42274274	      0.46878840	    -11.46030495
      3.50000000	      3.37925726	      0.63269894	    146.85196288	      0.58435666	      0.91139214	     -0.33670136	     31.37786113	      4.16382140	     11.76525103	    -14.70217669	      9.22940424	     11.85455016	    -13.07346510	      9.57446104	     34.93131009	    -14.87305271	      8.36132554	    -19.15693540	     -5.22779195	      0.63014969	    -11.57179142
      3.51000000	      3.54352055	      0.60073280	    147.43154837	      0.57563773	      0.91068098	     -0.34171741	     31.51832270	      4.30470564	     11.71563624	    -15.57928472	      8.75476319	     11.18438819	    -13.40524286	      9.43373567	     35.20521404	    -15.17683402	      7.93181964	    -18.72721473	     -5.00681275	      0.85347990	    -11.66599837
      3.52000000	      3.74481910	      0.60338587	    147.95402758	      0.56673812	      0.91010508	     -0.34677823	     31.64685350	      4.50460135	     11.83096296	    -16.52418337	      8.11496893	     10.36907519	    -13.67141074	      9.28188700	     35.34097707	    -15.56855317	      7.44573324	    -18.13771878	     -4.76051727	      1.14748696	    -11.69504578
      3.53000000	      3.97723493	      0.65557446	    148.41003979	      0.55766716	      0.90971078	     -0.35186996	     31.75986333	      4.77298266	     12.07544842	    -17.50369816	      7.36547834	      9.59513184	    -13.87191924	      9.11676478	     35.32353503	    -16.06457112	      6.90552900	    -17.38145223	     -4.50458341	      1.52326229	    -11.63417442
      3.54000000	      4.21630904	      0.76407141	    148.81645224	      0.54840963	      0.90957044	     -0.35695746	     31.82832588	      5.09037092	     12.39322986	    -18.48116923	      6.57949114	      8.87866732	    -14.01773410	      8.94635519	     35.16073207	    -16.68235465	      6.28084933	    -16.35515568	     -4.26552981	      1.97522625	    -11.52714430
      3.55000000	      4.46525998	      0.91709390	    149.15164793	      0.53900310	      0.90966621	     -0.36204766	     31.88043771	      5.45722976	     12.73715167	    -19.47095841	      5.80279545	      8.34242039	    -14.07014615	      8.79120447	     34.79234411	    -17.45853941	      5.60964082	    -15.00462012	     -4.03338353	      2.49070709	    -11.33355785
      3.56000000	      4.68414090	      1.11004404	    149.44786937	      0.52943528	      0.91004980	     -0.36706152	     31.86898739	      5.82434722	     13.03816974	    -20.44559593	      5.09927514	      7.98240207	    -14.03876953	      8.67489124	     34.23262850	    -18.42391179	      4.88365039	    -13.20096988	     -3.85015901	      3.04293793	    -11.09758964
      3.57000000	      4.85058437	      1.32119765	    149.71969515	      0.51973759	      0.91070109	     -0.37194778	     31.78672206	      6.14846044	     13.23911652	    -21.40423376	      4.53653842	      7.81664340	    -13.89868885	      8.62803990	     33.45507225	    -19.61951669	      4.11691816	    -10.89180472	     -3.72736224	      3.59469784	    -10.82361215
      3.58000000	      4.93099019	      1.53194569	    150.02029158	      0.50995767	      0.91163404	     -0.37660460	     31.60672859	      6.36912695	     13.29966119	    -22.33080800	      4.11091836	      7.80070086	    -13.63715452	      8.66518232	     32.46835093	    -21.07941611	      3.34885756	     -7.93856583	     -3.69478032	      4.10482478	    -10.61016523
      3.59000000	      4.94074037	      1.73673730	    150.35577306	      0.50014030	      0.91279817	     -0.38101151	     31.32868733	      6.47950446	     13.17575475	    -23.18343021	      3.84342432	      7.88441912	    -13.20983738	      8.77162344	     31.26819528	    -22.83104911	      2.60813183	     -4.27438677	     -3.73538026	      4.56953033	    -10.38921478
      3.60000000	      4.87406052	      1.91326329	    150.74211167	      0.49042356	      0.91412506	     -0.38514449	     30.96571576	      6.46579286	     12.91310800	    -23.96754185	      3.73340856	      8.00502645	    -12.55202316	      8.94459487	     29.76817702	    -24.93494488	      1.98961365	      0.06932029	     -3.85303009	      4.95337574	    -10.21274924
      3.61000000	      4.76947419	      2.05308713	    151.18382507	      0.48092016	      0.91551132	     -0.38902407	     30.56293545	      6.34625442	     12.50371523	    -24.68141685	      3.76617440	      8.11815889	    -11.58958669	      9.13294857	     27.93635861	    -27.41570139	      1.55383632	      5.00004728	     -4.00967758	      5.25647144	    -10.05541167
